Genre:Action | Comedy | Thriller 
Language:English
IMDb:http://www.imdb.com/title/tt1404830/
Encoder: Tony2
.........................................
General
Complete name : The Bannen Way 2010 DVDRip XviD.FEEL-FREE
Format : AVI
Format/Info : Audio Video Interleave
File size : 891 MiB
Duration : 1h 33mn
Overall bit rate : 1 334 Kbps
.........................................
Video
Format : xvid
Codec ID : xvid
Duration : 1h 33mn
Bit rate : 1 194 Kbps
Width : 720 pixels
Height : 304 pixels
Display aspect ratio : 2.35:1
Frame rate : 23.976 fps
Resolution : 24 bits
Bits/(Pixel*Frame) : 0.227
Stream size : 797 MiB (89%)
.........................................
Audio
ID : 1
Format : MPEG Audio
Format version : Version 1
Format profile : Layer 3
Format settings, Mode : Joint stereo / MS Stereo
Codec ID : 55
Codec ID/Hint : MP3
Duration : 1h 33mn
Bit rate mode : Constant
Bit rate : 128 Kbps
Channel(s) : 2 channels
Sampling rate : 48.0 KHz
Resolution : 16 bits
Stream size : 85.4 MiB (10%)
Alignment : Aligned on interleaves
Interleave, duration : 24 ms (0.58 video frame)
Interleave, preload duration : 24 ms
Writing library : LAME3.97
........................................
Plot:
The Bannen Way is a slick, sexy, action-packed show about Neal Bannen, a charming con-man with a police chief for a father.. 
...................................................
Screens: 
http://postimg.com/image/18000/17130.jpg
............................................................